<svg width="159" height="36" viewBox="0 0 159 36" fill="none" xmlns="http://www.w3.org/2000/svg">
<mask id="mask0_715_159" style="mask-type:luminance" maskUnits="userSpaceOnUse" x="5" y="22" width="24" height="14">
<path d="M6.97359 25.4117L15.1019 22.6408L25.7228 31.93C26.3671 32.494 27.3471 32.4289 27.9111 31.7837C28.098 31.5698 28.2155 31.3195 28.2662 31.0599H28.2679C28.1749 31.6045 27.7944 32.0814 27.2347 32.2708L16.5968 35.8973L16.5959 35.8956C16.0895 36.0664 15.5086 35.9709 15.0773 35.5938L6.51615 28.1064C6.28531 27.9263 6.10183 27.6794 6.00121 27.3809C5.72556 26.5684 6.16102 25.6865 6.97359 25.4117ZM17.7941 25.0041L10.5164 27.4849L16.4429 32.6682L23.6952 30.1958L17.7941 25.0041Z" fill="white"/>
</mask>
<g mask="url(#mask0_715_159)">
<path d="M28.2679 22.64H5.72559V36.0673H28.2679V22.64Z" fill="white"/>
<g filter="url(#filter0_f_715_159)">
<path d="M22.6418 15.3188L9.03857 21.9818L15.3867 31.3101L29.8968 24.647L22.6418 15.3188Z" fill="#050E1F" fill-opacity="0.33"/>
</g>
<g filter="url(#filter1_f_715_159)">
<path d="M30.9851 22.2715L17.3818 28.9346L23.73 38.2629L38.2401 31.5998L30.9851 22.2715Z" fill="#050E1F" fill-opacity="0.33"/>
</g>
</g>
<mask id="mask1_715_159" style="mask-type:luminance" maskUnits="userSpaceOnUse" x="11" y="0" width="22" height="14">
<path d="M31.4301 10.3803L23.3729 13.1275L12.9633 4.02179C12.5321 3.64467 11.9512 3.54913 11.4447 3.71993L11.4438 3.71824L22.047 0.102666L22.0479 0.104357C22.5544 -0.0664437 23.1353 0.0291034 23.5665 0.406219L31.8884 7.68471C32.1192 7.86481 32.3027 8.11171 32.4033 8.41019C32.6781 9.22277 32.2427 10.1047 31.4301 10.3803ZM20.6739 10.765L27.8873 8.30619L22.2001 3.33182L14.9867 5.79068L20.6739 10.765Z" fill="white"/>
</mask>
<g mask="url(#mask1_715_159)">
<path d="M32.6781 -0.0664368H11.4438V13.1267H32.6781V-0.0664368Z" fill="white"/>
<g filter="url(#filter2_f_715_159)">
<path d="M12.6054 -2.7584L-4.17188 5.64285L3.65753 17.4046L21.5533 9.00335L12.6054 -2.7584Z" fill="#050E1F" fill-opacity="0.33"/>
</g>
<g filter="url(#filter3_f_715_159)">
<path d="M23.7299 8.36601L6.95264 16.7673L14.782 28.529L32.6778 20.1278L23.7299 8.36601Z" fill="#050E1F" fill-opacity="0.33"/>
</g>
</g>
<mask id="mask2_715_159" style="mask-type:luminance" maskUnits="userSpaceOnUse" x="0" y="3" width="31" height="30">
<path d="M30.397 20.2935L28.2696 31.0608L28.2662 31.0599C28.2155 31.3195 28.0979 31.5706 27.9111 31.7837C27.3471 32.428 26.3671 32.4931 25.7228 31.93L0.597275 9.95417C0.36644 9.77406 0.182955 9.52716 0.0823348 9.22868C-0.192469 8.41611 0.242989 7.5342 1.05556 7.2594L11.444 3.71824L11.4448 3.71993C11.9513 3.54913 12.5322 3.64467 12.9634 4.02179L29.8085 18.7555C30.2668 19.1022 30.5145 19.6907 30.397 20.2935ZM25.7397 27.824L27.1729 20.57L11.597 6.94655L4.59842 9.33269L25.7397 27.824Z" fill="white"/>
</mask>
<g mask="url(#mask2_715_159)">
<path d="M30.5146 3.54829H-0.192383V32.494H30.5146V3.54829Z" fill="white"/>
</g>
<path d="M52.6461 27.8337L46.9448 9.25597H51.4502L55.0656 22.7165L58.4864 9.25597H62.7971L66.2179 22.7165L69.8055 9.25597H74.3109L68.6374 27.8337H64.1598L60.6557 14.7904L57.1237 27.8337H52.6461Z" fill="white"/>
<path d="M80.2946 28.1118C78.9411 28.1118 77.7082 27.8615 76.5957 27.3609C75.4833 26.8418 74.5933 26.0816 73.9259 25.0804C73.2584 24.0607 72.9247 22.7999 72.9247 21.2981C72.9247 19.9076 73.2306 18.7024 73.8424 17.6827C74.4543 16.663 75.2793 15.875 76.3176 15.3188C77.3559 14.7626 78.524 14.4844 79.8218 14.4844C81.1382 14.4844 82.2877 14.7255 83.2704 15.2075C84.2716 15.6896 85.0503 16.3663 85.6065 17.2377C86.1627 18.0906 86.4408 19.0733 86.4408 20.1857C86.4408 20.5194 86.3945 20.8902 86.3018 21.2981C86.2091 21.6875 86.0886 22.0212 85.9402 22.2993H76.846C76.9387 22.8926 77.1427 23.3932 77.4579 23.8011C77.7731 24.1905 78.2088 24.4871 78.765 24.6911C79.3212 24.895 79.9609 24.997 80.6839 24.997C81.4441 24.997 82.1579 24.8858 82.8254 24.6633C83.4929 24.4222 84.1232 24.1071 84.7165 23.7177L85.8846 26.4154C85.0874 26.9716 84.2159 27.398 83.2704 27.6947C82.3433 27.9728 81.3514 28.1118 80.2946 28.1118ZM76.846 19.7963H82.4917C82.5102 19.7593 82.5195 19.7222 82.5195 19.6851C82.5195 19.648 82.5195 19.5924 82.5195 19.5182C82.5195 19.0918 82.4268 18.7303 82.2414 18.4336C82.056 18.1184 81.7686 17.8774 81.3792 17.7105C81.0084 17.5251 80.5263 17.4324 79.933 17.4324C79.3954 17.4324 78.904 17.5344 78.4591 17.7383C78.0326 17.9237 77.6804 18.1926 77.4022 18.5448C77.1241 18.8971 76.9387 19.3143 76.846 19.7963Z" fill="white"/>
<path d="M96.9414 28.1118C95.9773 28.1118 95.143 27.9357 94.4385 27.5834C93.7339 27.2312 93.1777 26.7584 92.7698 26.1651V27.8337H89.1265V9.25597H92.9645V16.1809C93.3724 15.6618 93.91 15.2539 94.5775 14.9572C95.245 14.642 96.033 14.4844 96.9414 14.4844C98.1281 14.4844 99.1849 14.7626 100.112 15.3188C101.057 15.8565 101.808 16.6352 102.365 17.6549C102.921 18.6746 103.199 19.889 103.199 21.2981C103.199 22.7072 102.921 23.9216 102.365 24.9414C101.808 25.9611 101.057 26.7491 100.112 27.3053C99.1849 27.843 98.1281 28.1118 96.9414 28.1118ZM96.0515 24.7745C96.6819 24.7745 97.2381 24.6355 97.7202 24.3574C98.2208 24.0792 98.6008 23.6806 98.8604 23.1615C99.1385 22.6238 99.2776 22.0027 99.2776 21.2981C99.2776 20.5751 99.1385 19.9539 98.8604 19.4348C98.6008 18.9157 98.2208 18.517 97.7202 18.2389C97.2381 17.9608 96.6819 17.8218 96.0515 17.8218C95.4211 17.8218 94.8556 17.9608 94.355 18.2389C93.8544 18.517 93.4743 18.9157 93.2148 19.4348C92.9552 19.9539 92.8254 20.5751 92.8254 21.2981C92.8254 22.0027 92.9552 22.6238 93.2148 23.1615C93.4743 23.6806 93.8451 24.0792 94.3272 24.3574C94.8278 24.6355 95.4026 24.7745 96.0515 24.7745Z" fill="white"/>
<path d="M111.28 27.8337V11.3696H105.439V9.25597H119.484V11.3696H113.672V27.8337H111.28Z" fill="white"/>
<path d="M123.502 28.1118C122.204 28.1118 121.036 27.843 119.998 27.3053C118.96 26.7676 118.144 25.9982 117.551 24.997C116.957 23.9773 116.661 22.7443 116.661 21.2981C116.661 19.9076 116.948 18.7024 117.523 17.6827C118.098 16.663 118.876 15.875 119.859 15.3188C120.842 14.7626 121.936 14.4844 123.141 14.4844C124.42 14.4844 125.523 14.7347 126.45 15.2353C127.377 15.7359 128.091 16.4127 128.592 17.2655C129.092 18.0999 129.343 19.0547 129.343 20.1301C129.343 20.4267 129.296 20.7605 129.204 21.1313C129.129 21.4835 129.027 21.7709 128.898 21.9934H118.969C119.062 22.8834 119.303 23.6435 119.692 24.2739C120.1 24.8858 120.647 25.3493 121.333 25.6645C122.019 25.9797 122.807 26.1373 123.697 26.1373C124.568 26.1373 125.329 26.0075 125.977 25.7479C126.645 25.4698 127.285 25.0804 127.896 24.5798L128.786 26.2763C128.082 26.8882 127.285 27.3517 126.395 27.6669C125.505 27.9635 124.541 28.1118 123.502 28.1118ZM118.969 20.1023H127.006C127.025 20.0652 127.034 20.0281 127.034 19.991C127.034 19.9539 127.034 19.8983 127.034 19.8242C127.034 19.1567 126.895 18.5727 126.617 18.0721C126.339 17.5529 125.913 17.1543 125.338 16.8762C124.782 16.5981 124.077 16.459 123.224 16.459C122.557 16.459 121.926 16.6073 121.333 16.904C120.74 17.1821 120.239 17.59 119.831 18.1277C119.423 18.6654 119.136 19.3236 118.969 20.1023Z" fill="white"/>
<path d="M138.981 28.1118C137.665 28.1118 136.497 27.8337 135.477 27.2775C134.457 26.7028 133.66 25.9055 133.085 24.8858C132.51 23.866 132.223 22.6702 132.223 21.2981C132.223 19.9261 132.51 18.7303 133.085 17.7105C133.66 16.6908 134.457 15.9028 135.477 15.3466C136.497 14.7718 137.665 14.4844 138.981 14.4844C139.927 14.4844 140.78 14.6235 141.54 14.9016C142.318 15.1797 143.004 15.5783 143.598 16.0975L142.736 17.794C142.142 17.3304 141.521 16.9967 140.872 16.7928C140.223 16.5703 139.593 16.459 138.981 16.459C138.091 16.459 137.312 16.6537 136.645 17.0431C135.977 17.4324 135.458 17.9886 135.088 18.7117C134.717 19.4348 134.531 20.2969 134.531 21.2981C134.531 22.2993 134.717 23.1615 135.088 23.8846C135.458 24.6077 135.977 25.1639 136.645 25.5532C137.312 25.9426 138.091 26.1373 138.981 26.1373C139.593 26.1373 140.223 26.0353 140.872 25.8313C141.521 25.6089 142.142 25.2658 142.736 24.8023L143.598 26.4988C143.004 27.0179 142.318 27.4166 141.54 27.6947C140.78 27.9728 139.927 28.1118 138.981 28.1118Z" fill="white"/>
<path d="M147.097 27.8337V9.25597H149.349V21.2147L155.941 14.7625H158.722L153.159 20.1301L159 27.8337H156.219L151.574 21.6597L149.349 23.8011V27.8337H147.097Z" fill="white"/>
<defs>
<filter id="filter0_f_715_159" x="5.03857" y="11.3188" width="28.8584" height="23.9913" filterUnits="userSpaceOnUse" color-interpolation-filters="sRGB">
<feFlood flood-opacity="0" result="BackgroundImageFix"/>
<feBlend mode="normal" in="SourceGraphic" in2="BackgroundImageFix" result="shape"/>
<feGaussianBlur stdDeviation="2" result="effect1_foregroundBlur_715_159"/>
</filter>
<filter id="filter1_f_715_159" x="13.3818" y="18.2715" width="28.8584" height="23.9913" filterUnits="userSpaceOnUse" color-interpolation-filters="sRGB">
<feFlood flood-opacity="0" result="BackgroundImageFix"/>
<feBlend mode="normal" in="SourceGraphic" in2="BackgroundImageFix" result="shape"/>
<feGaussianBlur stdDeviation="2" result="effect1_foregroundBlur_715_159"/>
</filter>
<filter id="filter2_f_715_159" x="-8.17188" y="-6.7584" width="33.7251" height="28.163" filterUnits="userSpaceOnUse" color-interpolation-filters="sRGB">
<feFlood flood-opacity="0" result="BackgroundImageFix"/>
<feBlend mode="normal" in="SourceGraphic" in2="BackgroundImageFix" result="shape"/>
<feGaussianBlur stdDeviation="2" result="effect1_foregroundBlur_715_159"/>
</filter>
<filter id="filter3_f_715_159" x="2.95264" y="4.36601" width="33.7251" height="28.163" filterUnits="userSpaceOnUse" color-interpolation-filters="sRGB">
<feFlood flood-opacity="0" result="BackgroundImageFix"/>
<feBlend mode="normal" in="SourceGraphic" in2="BackgroundImageFix" result="shape"/>
<feGaussianBlur stdDeviation="2" result="effect1_foregroundBlur_715_159"/>
</filter>
</defs>
</svg>
